<svg width="100" height="100" fill="#ffffff" viewBox="0 0 24 24" xmlns="http://www.w3.org/2000/svg">
  <path d="m7.665 10.239 1.532-1.286 1.286 1.532 3.064-2.57 1.285 1.531-4.596 3.857-2.571-3.064Z"></path>
  <path fill-rule="evenodd" d="M16.207 4.89a8.001 8.001 0 0 1 .662 10.564l.045.043 4.242 4.242a1 1 0 0 1-1.414 1.415L15.5 16.91a1.046 1.046 0 0 1-.042-.045A8.001 8.001 0 0 1 4.893 4.89a8 8 0 0 1 11.314 0Zm-1.415 9.9a6 6 0 1 0-8.485-8.486 6 6 0 0 0 8.485 8.486Z" clip-rule="evenodd"></path>
</svg>